<svg xmlns:dc="http://purl.org/dc/elements/1.1/" xmlns:cc="http://creativecommons.org/ns#" xmlns:rdf="http://www.w3.org/1999/02/22-rdf-syntax-ns#" xmlns:svg="http://www.w3.org/2000/svg" xmlns="http://www.w3.org/2000/svg" xmlns:sodipodi="http://sodipodi.sourceforge.net/DTD/sodipodi-0.dtd" xmlns:inkscape="http://www.inkscape.org/namespaces/inkscape" width="100px" height="100px" viewBox="0 0 1200 942" version="1.1" id="svg2" inkscape:version="0.48.2 r9819">
  <metadata id="metadata28">
    <rdf:rdf>
      <cc:work rdf:about="">
        <dc:format>image/svg+xml</dc:format>
        <dc:type rdf:resource="http://purl.org/dc/dcmitype/StillImage"></dc:type>
      </cc:work>
    </rdf:rdf>
  </metadata>
  <defs id="defs26"></defs>
  <sodipodi:namedview pagecolor="#ffffff" bordercolor="#666666" borderopacity="1" objecttolerance="10" gridtolerance="10" guidetolerance="10" inkscape:pageopacity="0" inkscape:pageshadow="2" inkscape:window-width="1045" inkscape:window-height="704" id="namedview24" showgrid="false" inkscape:snap-grids="false" inkscape:zoom="0.196" inkscape:cx="319.27235" inkscape:cy="353.00854" inkscape:window-x="0" inkscape:window-y="0" inkscape:window-maximized="0" inkscape:current-layer="svg2">
    <inkscape:grid type="xygrid" id="grid3011"></inkscape:grid>
  </sodipodi:namedview>
  <path d="m 664.85732,923.77759 c 0,0 -20.07458,-3.86727 -29.05167,-9.03787 73.54357,-49.86224 148.57966,-97.49089 222.63266,-146.66167 3.27692,-1.26731 7.08393,0.65271 10.46549,1.13803 0.15694,7.43475 0.009,10.601 -2.95403,17.12618 -45.42691,25.26505 -80.71702,48.2221 -119.11294,74.32967 -2.54306,2.8089 1.32857,2.51345 3.2603,4.64179 37.80063,-18.89095 74.54439,-50.56184 114.53625,-64.63655 0.76966,1.38236 -0.10947,11.27289 -0.10947,11.27289 z" id="path4" inkscape:connector-curvature="0" style="fill:#000000;stroke:none;stroke-width:0.10784852000000000"></path>
  <path d="m 592.54462,318.8587 c -68.43542,45.62517 -136.59822,91.51644 -205.03365,137.1416 -5.78556,5.03214 -13.96135,4.43014 -21.2573,2.5025 -0.99133,-4.46281 -1.98266,-8.92563 -3.03319,-13.49477 -1.67699,-6.58843 4.93882,-11.24703 9.22635,-14.05211 44.9283,-27.94017 89.11034,-56.99711 134.27546,-84.51193 4.64415,-3.28223 12.43993,-12.08029 12.43993,-12.08029 l -151.78081,85.48264 c 0,0 -10.86342,3.95898 -16.74949,3.89301 -5.49771,-15.17545 -11.35645,-24.63829 -20.46139,-36.52641 -12.04888,2.94744 -23.3763,7.86125 -33.93406,14.15743 -12.13563,5.921 -23.26755,15.88003 -37.7452,15.58288 -6.11049,-0.91611 -8.73614,-8.09073 -11.86297,-13.03614 -29.92174,-53.96483 -60.2235,-107.7181 -89.95523,-161.78872 6.55868,-12.93542 13.20163,-25.7324 22.91513,-37.97161 14.69661,-13.61534 33.00607,-21.85937 49.64541,-32.65601 66.20627,-37.55839 133.00459,-74.053439 199.32927,-111.399163 16.92298,-9.840165 35.68129,-16.383932 52.54507,-26.330427 10.65138,-5.233911 20.7713,-12.539999 33.01983,-13.787704 12.26092,-1.672506 26.1121,-3.394632 37.95856,3.800151 21.45415,20.650806 31.90856,49.933363 47.28111,75.084628 17.17992,30.413425 33.65552,60.230815 50.93938,91.713835 2.53751,4.62207 -4.12405,9.03249 -7.64571,12.19696 -28.43652,21.88565 -49.25533,30.15833 -60.14124,46.43983 8.4635,17.43625 18.05502,34.95516 29.1552,50.64477 -1.47325,10.98909 -11.71883,13.75406 -19.13046,18.99505 M 264.7645,395.93617 c -1.74583,-3.93344 -3.97244,-6.59141 -5.67694,-10.09994 -26.02801,-45.40676 -49.49093,-92.2417 -75.51894,-137.64846 -3.85733,-6.95042 -0.30839,-9.71851 2.43708,-13.05799 12.45232,-12.50508 22.35746,-28.46741 38.50665,-36.34445 26.00611,-13.64372 50.68631,-29.89238 77.6631,-41.56918 18.17592,-5.80161 51.20514,-25.06255 56.52692,-12.24946 28.41134,47.00506 55.64576,97.70799 83.99789,144.60672 3.9663,6.32157 11.60024,2.93967 8.32143,-4.05399 -12.75377,-22.01247 -24.46252,-44.6068 -37.97632,-66.19611 -14.77913,-25.20307 -28.28742,-51.25301 -43.95738,-75.8208 -6.77436,-14.88567 15.55718,-28.16365 27.19991,-38.54638 14.75305,-11.278692 31.76827,-18.941431 47.74122,-28.252644 22.46758,-11.952154 43.93007,-26.827177 68.97788,-33.250995 10.67202,-2.738027 22.07653,-2.819313 32.57094,-5.876352 3.47986,-2.665963 2.46828,-7.349912 -2.16026,-9.244626 -15.52269,0.284692 -33.3874,-5.648762 -46.4662,4.837029 -85.32534,47.924787 -171.0651,95.105228 -256.39043,143.030018 -15.49932,10.16188 -32.47873,17.6654 -47.97804,27.82729 -3.91992,3.01829 -9.17952,4.97161 -11.44032,9.85214 -4.52025,8.64589 -14.96496,22.15267 -13.16971,26.41647 29.81573,53.32737 58.37629,107.21428 88.05792,160.61631 4.87448,4.37631 10.27607,1.95071 8.7336,-4.97469 z" id="path14" inkscape:connector-curvature="0" style="fill:#000000;stroke:none;stroke-width:0.10784852000000000"></path>
  <path d="m 389.02286,413.7868 c -2.55269,1.00337 -7.53968,3.2228 -10.09237,4.22618 2.55269,-1.00338 7.53968,-3.22281 10.09237,-4.22618 z" id="path16" inkscape:connector-curvature="0" style="fill:#000000;stroke:none;stroke-width:0.10784852000000000"></path>
  <path id="path3009" d="m 681.73276,465.63456 c -72.36635,47.9531 -145.06452,95.53375 -217.19406,143.9122 -7.98991,2.63769 -10.24645,0.91588 -14.88257,-4.20193 -6.20841,-9.99303 -0.26615,-21.12593 6.45903,-26.35065 72.10612,-48.64401 144.72169,-96.59657 216.76862,-145.34691 6.46275,-4.09769 15.40146,-8.00656 21.79477,3.1341 7.71547,9.57421 -3.22977,23.95394 -12.94579,28.85319 z" inkscape:connector-curvature="0" style="fill:#000000;stroke:none;stroke-width:0.10784852000000000"></path>
  <path style="fill:#000000;stroke:none;stroke-width:0.10784852000000000" inkscape:connector-curvature="0" d="m 661.08695,428.55339 c -72.36635,47.9531 -145.06452,95.53376 -217.19406,143.91221 -7.98991,2.63768 -10.24646,0.91587 -14.88257,-4.20193 -6.20842,-9.99304 -0.26616,-21.12594 6.45903,-26.35065 72.10612,-48.64401 144.72169,-96.59658 216.76862,-145.34691 6.46274,-4.09769 15.40145,-8.00657 21.79477,3.13409 7.71547,9.57422 -3.22977,23.95394 -12.94579,28.85319 z" id="path3013"></path>
  <path id="path3015" d="m 640.44112,391.47219 c -72.36635,47.9531 -145.06452,95.53376 -217.19406,143.91221 -7.98991,2.63768 -10.24645,0.91587 -14.88257,-4.20193 -6.20841,-9.99303 -0.26616,-21.12593 6.45903,-26.35065 72.10612,-48.64401 144.72169,-96.59657 216.76862,-145.34691 6.46274,-4.09769 15.40146,-8.00656 21.79477,3.13409 7.71547,9.57422 -3.22977,23.95394 -12.94579,28.85319 z" inkscape:connector-curvature="0" style="fill:#000000;stroke:none;stroke-width:0.10784852000000000"></path>
  <path style="fill:#000000;stroke:none;stroke-width:0.10784852000000000" inkscape:connector-curvature="0" d="m 619.79529,354.391 c -72.36635,47.95309 -145.06452,95.53375 -217.19406,143.9122 -7.98991,2.63768 -10.24645,0.91588 -14.88257,-4.20193 -6.20841,-9.99303 -0.26616,-21.12593 6.45903,-26.35065 72.10612,-48.64401 144.7217,-96.59657 216.76862,-145.34691 6.46274,-4.09769 15.40146,-8.00656 21.79477,3.13409 7.71547,9.57422 -3.22977,23.95394 -12.94579,28.8532 z" id="path3017"></path>
  <path style="fill:#000000;stroke:none;stroke-width:0.10784852000000000" inkscape:connector-curvature="0" d="m 764.31609,613.95936 c -72.36635,47.9531 -145.06453,95.53376 -217.19407,143.9122 -7.9899,2.63769 -10.24645,0.91588 -14.88256,-4.20192 -6.20842,-9.99304 -0.26617,-21.12594 6.45902,-26.35065 72.10613,-48.64401 144.7217,-96.59657 216.76862,-145.34691 6.46275,-4.09769 15.40146,-8.00657 21.79477,3.13408 7.71548,9.57423 -3.22977,23.95394 -12.94578,28.8532 z" id="path3019"></path>
  <path id="path3021" d="m 743.67026,576.87817 c -72.36635,47.95309 -145.06453,95.53375 -217.19407,143.9122 -7.9899,2.63768 -10.24645,0.91587 -14.88256,-4.20193 -6.20842,-9.99304 -0.26616,-21.12593 6.45902,-26.35065 72.10613,-48.64401 144.7217,-96.59657 216.76862,-145.34691 6.46275,-4.09769 15.40146,-8.00657 21.79477,3.13409 7.71548,9.57422 -3.22977,23.95394 -12.94578,28.8532 z" inkscape:connector-curvature="0" style="fill:#000000;stroke:none;stroke-width:0.10784852000000000"></path>
  <path style="fill:#000000;stroke:none;stroke-width:0.10784852000000000" inkscape:connector-curvature="0" d="m 723.02443,539.79697 c -72.36635,47.9531 -145.06452,95.53376 -217.19406,143.91221 -7.98991,2.63768 -10.24645,0.91587 -14.88257,-4.20193 -6.20841,-9.99303 -0.26616,-21.12593 6.45903,-26.35065 72.10612,-48.64401 144.7217,-96.59657 216.76862,-145.34691 6.46275,-4.09769 15.40146,-8.00656 21.79477,3.13409 7.71547,9.57422 -3.22977,23.95394 -12.94579,28.85319 z" id="path3023"></path>
  <path id="path3025" d="m 702.3786,502.71578 c -72.36634,47.9531 -145.06452,95.53375 -217.19406,143.9122 -7.98991,2.63768 -10.24645,0.91588 -14.88257,-4.20193 -6.20841,-9.99303 -0.26616,-21.12593 6.45903,-26.35065 72.10612,-48.64401 144.7217,-96.59657 216.76862,-145.34691 6.46275,-4.09769 15.40146,-8.00656 21.79477,3.13409 7.71547,9.57422 -3.22977,23.95394 -12.94579,28.8532 z" inkscape:connector-curvature="0" style="fill:#000000;stroke:none;stroke-width:0.10784852000000000"></path>
  <path id="path3027" d="m 846.89939,762.28412 c -72.36636,47.9531 -145.06453,95.53376 -217.19407,143.9122 -7.98991,2.63768 -10.24645,0.91588 -14.88257,-4.20193 -6.20842,-9.99303 -0.26615,-21.12593 6.45903,-26.35065 72.10612,-48.64401 144.72169,-96.59657 216.76862,-145.34691 6.46275,-4.09769 15.40146,-8.00656 21.79477,3.1341 7.71547,9.57421 -3.22977,23.95393 -12.94578,28.85319 z" inkscape:connector-curvature="0" style="fill:#000000;stroke:none;stroke-width:0.10784852000000000"></path>
  <path style="fill:#000000;stroke:none;stroke-width:0.10784852000000000" inkscape:connector-curvature="0" d="m 826.25356,725.20293 c -72.36635,47.9531 -145.06453,95.53375 -217.19407,143.91219 -7.98991,2.63769 -10.24645,0.91588 -14.88257,-4.20193 -6.20841,-9.99302 -0.26615,-21.12593 6.45903,-26.35065 72.10613,-48.644 144.7217,-96.59656 216.76862,-145.3469 6.46275,-4.09769 15.40146,-8.00657 21.79477,3.13409 7.71548,9.57422 -3.22977,23.95394 -12.94578,28.8532 z" id="path3029"></path>
  <path id="path3031" d="m 805.60773,688.12173 c -72.36635,47.9531 -145.06453,95.53375 -217.19407,143.91219 -7.9899,2.6377 -10.24645,0.91588 -14.88256,-4.20192 -6.20842,-9.99303 -0.26616,-21.12594 6.45902,-26.35065 72.10613,-48.64401 144.7217,-96.59657 216.76862,-145.34691 6.46275,-4.09769 15.40146,-8.00657 21.79477,3.13409 7.71548,9.57422 -3.22977,23.95394 -12.94578,28.8532 z" inkscape:connector-curvature="0" style="fill:#000000;stroke:none;stroke-width:0.10784852000000000"></path>
  <path style="fill:#000000;stroke:none;stroke-width:0.10784852000000000" inkscape:connector-curvature="0" d="m 784.9619,651.04053 c -72.36635,47.9531 -145.06453,95.53375 -217.19407,143.9122 -7.9899,2.63769 -10.24645,0.91587 -14.88256,-4.20193 -6.20842,-9.99303 -0.26616,-21.12593 6.45902,-26.35065 72.10613,-48.64401 144.7217,-96.59657 216.76862,-145.34691 6.46275,-4.09769 15.40146,-8.00657 21.79477,3.1341 7.71548,9.57421 -3.22977,23.95394 -12.94578,28.85319 z" id="path3033"></path>
</svg>
