<?xml version="1.0" encoding="UTF-8" standalone="no"?>
<!-- Created with Inkscape (http://www.inkscape.org/) -->

<svg
   xmlns:dc="http://purl.org/dc/elements/1.1/"
   xmlns:cc="http://creativecommons.org/ns#"
   xmlns:rdf="http://www.w3.org/1999/02/22-rdf-syntax-ns#"
   xmlns:svg="http://www.w3.org/2000/svg"
   xmlns="http://www.w3.org/2000/svg"
   xmlns:sodipodi="http://sodipodi.sourceforge.net/DTD/sodipodi-0.dtd"
   xmlns:inkscape="http://www.inkscape.org/namespaces/inkscape"
   width="100"
   height="100"
   id="svg2"
   version="1.1"
   inkscape:version="0.47 r22583"
   sodipodi:docname="nuts-and-washers-icon.svg">
  <defs
     id="defs4">
    <inkscape:perspective
       sodipodi:type="inkscape:persp3d"
       inkscape:vp_x="0 : 526.18109 : 1"
       inkscape:vp_y="0 : 1000 : 0"
       inkscape:vp_z="744.09448 : 526.18109 : 1"
       inkscape:persp3d-origin="372.04724 : 350.78739 : 1"
       id="perspective10" />
  </defs>
  <sodipodi:namedview
     id="base"
     pagecolor="#ffffff"
     bordercolor="#666666"
     borderopacity="1.0"
     inkscape:pageopacity="0.0"
     inkscape:pageshadow="2"
     inkscape:zoom="4.0269132"
     inkscape:cx="43.747348"
     inkscape:cy="45.186623"
     inkscape:document-units="px"
     inkscape:current-layer="layer1"
     showgrid="false"
     inkscape:window-width="983"
     inkscape:window-height="631"
     inkscape:window-x="111"
     inkscape:window-y="7"
     inkscape:window-maximized="0" />
  <metadata
     id="metadata7">
    <rdf:RDF>
      <cc:Work
         rdf:about="">
        <dc:format>image/svg+xml</dc:format>
        <dc:type
           rdf:resource="http://purl.org/dc/dcmitype/StillImage" />
        <dc:title />
      </cc:Work>
    </rdf:RDF>
  </metadata>
  <g
     inkscape:label="Layer 1"
     inkscape:groupmode="layer"
     id="layer1"
     transform="translate(0,-952.36218)">
    <path
       id="path2814"
       d="m 19.101505,973.82615 -17.1084208,29.62995 17.1084208,29.6356 34.216841,0 17.108421,-29.6356 -17.108421,-29.62995 -34.216841,0 z m 17.10842,16.3662 c 7.607581,0 13.771553,6.1696 13.771553,13.77705 0,7.6077 -6.163972,13.7717 -13.771553,13.7717 -7.607581,0 -13.777134,-6.164 -13.777134,-13.7717 0,-7.60745 6.169553,-13.77705 13.777134,-13.77705 z"
       style="fill:#000000;fill-opacity:1;fill-rule:nonzero;stroke:none" />
    <path
       style="fill:#000000;fill-opacity:1;fill-rule:nonzero;stroke:none"
       d="M 68.5625 22.3125 C 65.193682 22.3125 61.961742 22.857488 58.9375 23.875 C 61.806911 28.86811 64.678214 33.859178 67.5625 38.84375 C 67.835506 38.82783 68.099969 38.8125 68.375 38.8125 C 75.93283 38.8125 82.0625 44.94205 82.0625 52.5 C 82.0625 60.0578 75.93283 66.1875 68.375 66.1875 C 67.666732 66.1875 66.995538 66.110869 66.3125 66 C 63.534563 70.801626 60.766432 75.59802 58 80.40625 C 61.290355 81.648648 64.840074 82.34375 68.5625 82.34375 C 85.14583 82.34375 98.59375 68.92705 98.59375 52.34375 C 98.59375 35.76042 85.14583 22.3125 68.5625 22.3125 z M 40.0625 42.84375 C 39.071971 45.828829 38.53125 49.026579 38.53125 52.34375 C 38.53125 55.349845 38.991551 58.234144 39.8125 60.96875 C 40.352978 60.733469 40.869909 60.429365 41.375 60.0625 C 48.224417 56.258695 46.111175 45.874153 40.0625 42.84375 z "
       transform="translate(0,952.36218)"
       id="path2834" />
  </g>
</svg>
