<?xml version="1.0" encoding="UTF-8" standalone="no"?>
<!-- Created with Inkscape (http://www.inkscape.org/) -->

<svg
   xmlns:dc="http://purl.org/dc/elements/1.1/"
   xmlns:cc="http://creativecommons.org/ns#"
   xmlns:rdf="http://www.w3.org/1999/02/22-rdf-syntax-ns#"
   xmlns:svg="http://www.w3.org/2000/svg"
   xmlns="http://www.w3.org/2000/svg"
   xmlns:sodipodi="http://sodipodi.sourceforge.net/DTD/sodipodi-0.dtd"
   xmlns:inkscape="http://www.inkscape.org/namespaces/inkscape"
   width="100"
   height="100"
   id="svg2"
   version="1.1"
   inkscape:version="0.47 r22583"
   sodipodi:docname="washer-icon.svg"
   inkscape:export-filename="/Users/jlove/files/clients/aisc/art/nut-icon.png"
   inkscape:export-xdpi="127.07278"
   inkscape:export-ydpi="127.07278">
  <defs
     id="defs4">
    <inkscape:perspective
       sodipodi:type="inkscape:persp3d"
       inkscape:vp_x="0 : 526.18109 : 1"
       inkscape:vp_y="0 : 1000 : 0"
       inkscape:vp_z="744.09448 : 526.18109 : 1"
       inkscape:persp3d-origin="372.04724 : 350.78739 : 1"
       id="perspective10" />
  </defs>
  <sodipodi:namedview
     id="base"
     pagecolor="#ffffff"
     bordercolor="#666666"
     borderopacity="1.0"
     inkscape:pageopacity="0.0"
     inkscape:pageshadow="2"
     inkscape:zoom="2.785"
     inkscape:cx="56.88107"
     inkscape:cy="46.574594"
     inkscape:document-units="px"
     inkscape:current-layer="layer1"
     showgrid="false"
     inkscape:window-width="1087"
     inkscape:window-height="807"
     inkscape:window-x="1200"
     inkscape:window-y="700"
     inkscape:window-maximized="0" />
  <metadata
     id="metadata7">
    <rdf:RDF>
      <cc:Work
         rdf:about="">
        <dc:format>image/svg+xml</dc:format>
        <dc:type
           rdf:resource="http://purl.org/dc/dcmitype/StillImage" />
        <dc:title />
      </cc:Work>
    </rdf:RDF>
  </metadata>
  <g
     inkscape:label="Layer 1"
     inkscape:groupmode="layer"
     id="layer1"
     transform="translate(0,-952.36218)">
    <path
       style="fill:none;stroke:#000000;stroke-width:6.85757256;stroke-miterlimit:4;stroke-opacity:1;stroke-dasharray:none"
       d="M 29.28125 31.3125 L 29.28125 51.34375 C 31.499418 52.590616 34.052107 53.3125 36.78125 53.3125 C 45.25551 53.3125 52.15625 46.44309 52.15625 37.96875 C 52.15625 35.577969 51.571396 33.331939 50.59375 31.3125 L 29.28125 31.3125 z M 67.75 31.3125 C 68.134168 33.280064 68.34375 35.326483 68.34375 37.40625 C 68.34375 41.302598 67.635621 45.025528 66.34375 48.46875 C 72.102717 50.682633 76.1875 56.272303 76.1875 62.8125 C 76.1875 71.2867 69.349267 78.125 60.875 78.125 C 54.024448 78.125 48.19568 73.661927 46.21875 67.46875 C 43.234712 68.40231 40.073342 68.9375 36.78125 68.9375 C 34.194868 68.9375 31.685801 68.617068 29.28125 68.03125 L 29.28125 94.125 L 92.09375 94.125 L 92.09375 31.3125 L 67.75 31.3125 z "
       transform="translate(0,952.36218)"
       id="rect3591" />
    <path
       style="fill:none;stroke:#000000;stroke-width:6.85757256;stroke-miterlimit:4;stroke-opacity:1;stroke-dasharray:none"
       d="m 36.419628,958.19756 c -17.428207,0 -31.5273983,14.13555 -31.5273983,31.56373 0,17.42821 14.0991913,31.52741 31.5273983,31.52741 17.428208,0 31.56372,-14.0992 31.56372,-31.52741 0,-17.42818 -14.135512,-31.56373 -31.56372,-31.56373 z m 0,16.78071 c 8.474267,0 15.364158,6.88992 15.364158,15.36416 0,8.47434 -6.889891,15.32787 -15.364158,15.32787 -8.474268,0 -15.327836,-6.85353 -15.327836,-15.32787 0,-8.47424 6.853568,-15.36416 15.327836,-15.36416 z"
       id="path3589" />
  </g>
</svg>
